<?xml version="1.0" encoding="utf-8"?>
<!-- Generator: Adobe Illustrator 27.5.0, SVG Export Plug-In . SVG Version: 6.00 Build 0)  -->
<svg version="1.1" id="Ñëîé_1" xmlns="http://www.w3.org/2000/svg" xmlns:xlink="http://www.w3.org/1999/xlink" x="0px" y="0px"
	 viewBox="0 0 2000 2600" style="enable-background:new 0 0 2000 2600;" xml:space="preserve">
<rect id="_x34_" x="-300" y="300" transform="matrix(-1.836970e-16 1 -1 -1.836970e-16 2300 300)" style="fill:#FFFFFF;" width="2600" height="2000"/>
<g id="_x33_">
	<path style="fill:#B1CCF2;" d="M427.467,657.529c0,0-69.337,54.007-12.656,153.279c53.977,94.536,41.362,250.951-41.362,374.412
		c-82.724,123.46-24.511,444.402-153.191,512.187c0,0,184.791,81.253,352.821,53.072L757.96,614.607
		C536.853,565.699,427.467,657.529,427.467,657.529z"/>
	<path style="fill:#D7E6FF;" d="M1420.238,1605.339c-109.676,23.043-186.113,27.888-230.116,28.022
		c-29.739,0.091-59.469,0.839-89.159,2.536c-83.164,4.754-257.62-4.865-289.323-163.813
		c-68.232-342.089,140.337-587.097-53.68-857.477c0,0-159.319-87.204-330.493,42.922c0,0,184.961-72.99,83.854,438.215
		c-42.729,216.045-128.681,815.737,461.921,869.344h179.423c117.581,0,213.312-8.43,344.036-34.799s222.638-56.333,222.638-56.333
		v-259.767C1696.871,1565.168,1604.956,1566.531,1420.238,1605.339z"/>
	<path style="fill:#B1CCF2;" d="M529.707,650.394c-1.37,0-2.67-0.809-3.231-2.152c-0.745-1.783,0.096-3.832,1.878-4.578
		c0.876-0.366,21.871-9.037,58.251-14.782c33.477-5.286,86.78-8.908,150.594,3.855c1.896,0.379,3.125,2.223,2.746,4.119
		c-0.379,1.896-2.222,3.126-4.119,2.746c-62.676-12.535-115.004-9.011-147.864-3.847c-35.63,5.6-56.701,14.281-56.91,14.368
		C530.613,650.306,530.156,650.394,529.707,650.394z"/>
	<path style="fill:#B1CCF2;" d="M566.472,724.65c-1.376,0-2.682-0.817-3.238-2.169c-0.735-1.788,0.117-3.832,1.904-4.568
		c0.983-0.405,24.502-9.993,62.137-17.257c34.71-6.7,88.322-12.502,146.619-2.1c1.903,0.34,3.17,2.158,2.831,4.06
		c-0.34,1.903-2.154,3.173-4.06,2.831c-109.465-19.535-203.921,18.552-204.862,18.939
		C567.366,724.565,566.915,724.65,566.472,724.65z"/>
	<path style="fill:#B1CCF2;" d="M583.317,807.899c-1.637,0-3.1-1.154-3.43-2.821c-0.375-1.897,0.858-3.738,2.754-4.113
		c1.27-0.25,128.027-24.929,217.998-7.379c1.898,0.37,3.135,2.208,2.765,4.105c-0.37,1.896-2.212,3.138-4.105,2.765
		c-88.634-17.289-214.043,7.127-215.299,7.376C583.771,807.877,583.543,807.899,583.317,807.899z"/>
	<path style="fill:#B1CCF2;" d="M813.425,894.055c-0.098,0-0.197-0.004-0.297-0.012c-106.931-8.976-234.411-0.088-235.686,0.003
		c-1.928,0.128-3.602-1.315-3.74-3.243c-0.137-1.928,1.315-3.603,3.243-3.74c1.28-0.09,129.288-9.017,236.769,0.003
		c1.926,0.162,3.356,1.854,3.195,3.781C816.755,892.674,815.225,894.055,813.425,894.055z"/>
	<path style="fill:#B1CCF2;" d="M799.971,988.11c-0.024,0-0.049,0-0.073-0.001l-233.5-4.798c-1.933-0.039-3.467-1.638-3.427-3.571
		c0.039-1.933,1.63-3.48,3.571-3.428l233.5,4.798c1.933,0.04,3.467,1.639,3.428,3.571C803.43,986.59,801.871,988.11,799.971,988.11z
		"/>
	<path style="fill:#B1CCF2;" d="M777.974,1080.861H557.279c-1.933,0-3.5-1.567-3.5-3.5s1.567-3.5,3.5-3.5h220.695
		c1.933,0,3.5,1.567,3.5,3.5S779.907,1080.861,777.974,1080.861z"/>
	<path style="fill:#B1CCF2;" d="M537.362,1181.839c-1.871,0-3.422-1.48-3.495-3.366c-0.074-1.932,1.432-3.558,3.363-3.632
		l235.914-9.063c1.938-0.064,3.558,1.432,3.632,3.363c0.074,1.932-1.432,3.558-3.363,3.632l-235.915,9.063
		C537.453,1181.838,537.407,1181.839,537.362,1181.839z"/>
	<path style="fill:#B1CCF2;" d="M520.509,1289.202c-1.766,0-3.284-1.333-3.476-3.128c-0.206-1.922,1.186-3.647,3.108-3.852
		l243.574-26.043c1.917-0.209,3.647,1.186,3.852,3.108c0.206,1.922-1.186,3.647-3.108,3.852l-243.574,26.043
		C520.759,1289.195,520.633,1289.202,520.509,1289.202z"/>
	<path style="fill:#B1CCF2;" d="M520.51,1404.327c-1.623,0-3.079-1.135-3.423-2.786c-0.394-1.893,0.82-3.747,2.712-4.142
		l243.574-50.784c1.893-0.392,3.746,0.82,4.141,2.712c0.395,1.893-0.82,3.747-2.712,4.142l-243.574,50.784
		C520.987,1404.303,520.746,1404.327,520.51,1404.327z"/>
	<path style="fill:#B1CCF2;" d="M537.363,1523.585c-1.483,0-2.86-0.95-3.334-2.439c-0.586-1.842,0.431-3.811,2.273-4.396
		l240.61-76.596c1.842-0.586,3.81,0.432,4.396,2.273c0.586,1.842-0.431,3.811-2.273,4.396l-240.61,76.596
		C538.073,1523.531,537.715,1523.585,537.363,1523.585z"/>
	<path style="fill:#B1CCF2;" d="M566.472,1632.352c-1.351,0-2.637-0.786-3.211-2.104c-0.771-1.772,0.04-3.835,1.812-4.606
		l225.192-98.043c1.773-0.772,3.835,0.04,4.606,1.812c0.771,1.772-0.04,3.835-1.812,4.606l-225.192,98.043
		C567.413,1632.258,566.938,1632.352,566.472,1632.352z"/>
	<path style="fill:#B1CCF2;" d="M630.814,1759.918c-1.073,0-2.131-0.491-2.818-1.42c-1.149-1.555-0.82-3.746,0.735-4.895
		l203.745-150.546c1.556-1.149,3.747-0.818,4.895,0.734c1.149,1.555,0.82,3.746-0.735,4.895l-203.745,150.546
		C632.265,1759.695,631.536,1759.918,630.814,1759.918z"/>
	<path style="fill:#B1CCF2;" d="M777.971,1825.342c-0.673,0-1.354-0.193-1.954-0.599c-1.602-1.081-2.025-3.257-0.944-4.859
		l120.922-179.204c1.081-1.603,3.257-2.025,4.859-0.943c1.603,1.081,2.025,3.257,0.944,4.859L780.875,1823.8
		C780.199,1824.802,779.095,1825.342,777.971,1825.342z"/>
	<path style="fill:#B1CCF2;" d="M943.325,1871.328c-0.223,0-0.449-0.021-0.675-0.066c-1.897-0.37-3.134-2.209-2.764-4.106
		l39.83-203.743c0.371-1.896,2.211-3.138,4.107-2.763c1.897,0.37,3.134,2.209,2.764,4.106l-39.83,203.743
		C946.43,1870.169,944.965,1871.328,943.325,1871.328z"/>
	<path style="fill:#B1CCF2;" d="M1202.569,1871.327c-1.834,0-3.375-1.428-3.49-3.283l-11.601-186.683
		c-0.12-1.929,1.347-3.59,3.276-3.71c1.933-0.135,3.591,1.349,3.71,3.276l11.601,186.683c0.12,1.929-1.347,3.59-3.276,3.71
		C1202.716,1871.325,1202.642,1871.327,1202.569,1871.327z"/>
	<path style="fill:#B1CCF2;" d="M1299.751,1825.343c-1.689,0-3.177-1.227-3.452-2.948l-24.008-150.098
		c-0.306-1.908,0.994-3.703,2.903-4.009c1.91-0.311,3.703,0.994,4.009,2.903l24.008,150.098c0.306,1.908-0.994,3.703-2.903,4.009
		C1300.12,1825.328,1299.935,1825.343,1299.751,1825.343z"/>
	<path style="fill:#B1CCF2;" d="M1467.236,1759.918c-1.933,0-3.5-1.567-3.5-3.5v-127.567c0-1.933,1.567-3.5,3.5-3.5
		s3.5,1.567,3.5,3.5v127.567C1470.736,1758.351,1469.169,1759.918,1467.236,1759.918z"/>
	<path style="fill:#B1CCF2;" d="M1548.432,1735.739c-0.091,0-0.184-0.003-0.275-0.011c-1.928-0.149-3.368-1.834-3.218-3.761
		l9.191-118.05c0.15-1.927,1.837-3.378,3.761-3.218c1.928,0.149,3.368,1.834,3.218,3.761l-9.191,118.05
		C1551.774,1734.346,1550.241,1735.739,1548.432,1735.739z"/>
	<path style="fill:#B1CCF2;" d="M1634.219,1696.135c-0.201,0-0.405-0.018-0.609-0.054c-1.904-0.335-3.177-2.149-2.842-4.053
		l13.787-78.444c0.335-1.904,2.154-3.18,4.053-2.842c1.904,0.335,3.177,2.149,2.842,4.053l-13.787,78.444
		C1637.363,1694.938,1635.887,1696.135,1634.219,1696.135z"/>
</g>
<g id="_x32_">
	<path style="fill:#F99370;" d="M841.826,700.66l-21.86-14.958l-14.144,13.022c0,0,8.118,18.308,16.261,41.464
		C825.731,750.56,852.51,730.428,841.826,700.66z"/>
	<path style="fill:#8C4225;" d="M1216.224,311.298c0,0,34.284-38.193,92.606-23.895s44.053,53.106,67.279,84.766
		c20.827,28.389,18.778,62.2,0,96.097c-14.166,25.572,26.799,33.089,18.778,69.047c-8.634,38.712-156.684,67.28-224.976,29.432
		c-68.292-37.848-13.143-102.925-16.207-137.516C1150.641,394.638,1216.224,311.298,1216.224,311.298z"/>
	<path style="fill:#F99370;" d="M1436.855,1920.181h-71.975c-10.385,0-17.727-9.977-14.864-19.959
		c5.219-18.197,17.286-34.538,15.547-54.889c-1.28-21.573-9.845-124.498-11.567-147.927h81.73
		c-0.092,26.153,0.526,120.81,0.02,145.032C1428.073,1865.834,1474.781,1913.967,1436.855,1920.181z"/>
	<path style="fill:#F99370;" d="M1153.326,1908.458c0.109,4.452-0.02,7.697-0.661,11.723H971.487
		c-10.484,0-16.863-11.877-10.765-20.406c7.365-10.301,21.045-15.491,33.753-18.961c22.683-6.194,75.188-4.51,81.302-39.173
		c1.428-19.865-14.851-122.489-16.486-144.234h104.126C1158.58,1758.446,1141.741,1848.374,1153.326,1908.458z"/>
	<path style="fill:#1D3F70;" d="M1202.572,566.369l-82.82,237.63l-12.52,35.91c-15.75,7.19-37,12.98-61.26,15.47
		c-30.58,3.14-65.95,1.04-101.12-10.1c-49.252-15.603-93.276-65.612-114.382-89.365c-4.635-5.216-7.999-13.945-2.808-18.609
		c9.68-8.698,13.18-26.053,11.489-33.732c-0.839-3.811,3.449-8.255,7.016-6.672c156.958,69.633,197.964,3.817,252.264-55.842
		C1153.562,580.489,1202.572,566.369,1202.572,566.369z"/>
	<path style="fill:#103663;" d="M1153.268,1914.485c-0.15,1.958-0.259,3.86-0.603,5.696H969.836
		c-8.941,0.008-15.079-9.394-11.095-17.4h0.019c5.812-12.023,19.042-17.265,31.164-20.724
		c126.27,21.852,159.499-31.475,159.499-31.475C1149.072,1867.73,1153.574,1893.488,1153.268,1914.485z"/>
	<path style="fill:#163356;" d="M1119.752,803.999l-12.52,35.91c-15.75,7.19-37,12.98-61.26,15.47
		c36.49-25.73,38.59-64.16,34.89-110.44c-4.16-52.09,30.32-81.64,30.32-81.64L1119.752,803.999z"/>
	<path style="fill:#103663;" d="M1437.053,1920.181h-72.5c-22.404-2.875-15.96-25.535-7.735-37.832
		c47.551-32.797,88.769,0.212,88.769,0.212C1454.041,1896.07,1457.961,1918.721,1437.053,1920.181z"/>
	<path style="fill:#8C4225;" d="M1226.772,310.146c-85.623-19.74-114.112,115.705-60.586,172.424L1226.772,310.146z"/>
	<path style="fill:#F99370;" d="M1370.128,1018.932h-271.591c-1.401-107.394,10.993-215.962,36.219-320.253
		c12.563-50.793,49.133-110.68,67.82-132.31l10.636-6.491l0.02-23.793c-0.088,1.227,20.686-109.205,29.986-112.108
		c23.791-8.262,46.311,69.438,38.99,96.254l1.351,38.901c117.882,37.621,57.792,171.549,65.848,261.404
		C1350.026,886.557,1356.394,954.39,1370.128,1018.932z"/>
	<path style="fill:#E57D61;" d="M1288.495,459.322c-0.165,1.163-0.371,2.342-0.642,3.48c-1.556-1.03-6.544,39.322-5.134,72.21
		c-28.773,13.084-63.624,10.449-69.495,9.244c0-45.575-1.286-108.865,29.993-120.277
		C1265.676,414.373,1292.448,434.843,1288.495,459.322z"/>
	<path style="fill:#F99370;" d="M1318.648,417.629c0.966,30.349-2.534,65.447-22.002,89.423l-0.038,0.007
		c-7.876,9.622-18.357,16.809-30.021,21.548c-64.944,32.527-160.965-31.68-118.58-100.237c16.006-21.802,13.95-54.528,26.017-75.465
		c16.24-37.188,66.175-45.112,98.151-23.554C1301.074,348.845,1315.817,380.574,1318.648,417.629z"/>
	<path style="fill:#F9F8F3;" d="M1183.681,479.176l34.766-27.2C1226.511,474.717,1204.993,494.421,1183.681,479.176z"/>
	<path style="fill:#C16256;" d="M1202.815,421.267c-3.685-4.592,3.612-10.275,7.161-5.576
		C1213.661,420.283,1206.364,425.966,1202.815,421.267z"/>
	<path style="fill:#C16256;" d="M1164.142,422.237c-3.685-4.592,3.611-10.275,7.161-5.576
		C1174.988,421.253,1167.691,426.935,1164.142,422.237z"/>
	<path style="fill:#C16256;" d="M1184.009,480.861c-1.682,0.389-2.822-1.992-1.386-3.038c1.124,0.238,36.464-31.154,37.176-26.907
		c0.584,0.748,0.453,1.828-0.294,2.412C1218.636,453.768,1185.038,480.749,1184.009,480.861z"/>
	<path style="fill:#C16256;" d="M1185.82,458.232c-8.174,1.485-21.922-1.553-13.016-10.801c7.528-6.187,10.333-24.836,10.361-25.023
		c7.428-8.258,0.312,21.315-8.178,27.675c-5.815,5.325,8.691,6.576,13.99,3.472c0.835-0.459,1.876-0.153,2.332,0.679
		C1192.377,457.169,1187.886,457.597,1185.82,458.232z"/>
	<path style="fill:#EB5648;" d="M1453.191,1837.256c0,0-58.906,21.832-99.849,3.966c-24.911-133.061-97.098-401.558-121.659-660.865
		c-0.012-10.485-81.29,364.74-60.504,652.427c-25.983,9.196-82.466,23.245-108.714,1.477
		c-18.948-135.453-71.653-568.476,22.484-921.02c0,0,153.477,15.844,301.384-22.688c0,0,64.544,111.3,48.272,349.375
		C1421.047,1470.992,1431.199,1700.978,1453.191,1837.256z"/>
	<polygon style="fill:#F99370;" points="1362.365,999.286 1333.449,1028.85 1375.322,1066.638 1408.513,1035.489 	"/>
	<path style="fill:#1D3F70;" d="M1419.864,948.68c-149.01,46.125-282.314,26.483-329.069,16.949
		c-11.781-2.402-20.59-12.364-21.311-24.365c-1.999-33.266,18.381-51.15,32.391-102.882c11.02-40.688-26.809-104.936-5.788-147.949
		c38.856-79.508,106.489-124.063,106.489-124.063s16.282,51.49,97.818-0.67C1376.108,610.893,1419.864,948.68,1419.864,948.68z"/>
	<path style="fill:#E57D61;" d="M1318.648,417.629c0.966,30.349-2.534,65.447-22.002,89.423l-0.038,0.007
		c9.78-18.493,10.873-55.836,10.873-55.836l-9.176-14.736c-108.58-13.157-115.74-96.923-115.74-96.923
		c12.661-16.277,32.718-22.964,53.243-21.893C1286.185,320.77,1315.448,368.853,1318.648,417.629z"/>
	<path style="fill:#CE3932;" d="M1435.923,1821.842c-57.692-141.256-18.491-612.404-53.751-745.188
		c-10.649-5.933-60.779-36.193-81.162-90.332c-2.268-5.702,6.936-9.481,9.097-3.425c22.281,59.45,79.963,84.364,80.895,89.132
		c0.923,3.198,22.57,80.108,17.415,236.919C1397.4,1464.056,1427.026,1709.212,1435.923,1821.842z"/>
	<path style="fill:#1D3F70;" d="M1420.238,1034.477c-7.984,5.635-17.357,12.449-26.717,6.031
		c-9.876-5.965-39.173-32.591-28.621-53.492c105.349-175.294-90.787-205.013-64.506-421.317
		C1455.685,585.36,1647.598,893.682,1420.238,1034.477z"/>
	<path style="fill:#8C4225;" d="M1192.008,330.158c0,0,7.476,82.52,105.366,97.999l29.306-24.483
		C1346.506,334.67,1270.667,253.684,1192.008,330.158z"/>
	<path style="fill:#CE3932;" d="M1171.178,1832.785c0,0-75.956,28.287-108.714,1.477c0,0-1.28-9.824-3.632-26.369
		c0,0,56.784,20.575,110.714-8.547l0.02,0.019C1169.974,1810.564,1170.518,1821.704,1171.178,1832.785z"/>
	<path style="fill:#CE3932;" d="M1453.191,1837.256c0,0-58.906,21.832-99.849,3.966c0,0-2.391-11.665-6.513-32.428
		c0,0,36.782,19.208,100.996-4.705C1449.594,1817.349,1451.402,1828.508,1453.191,1837.256z"/>
	<path style="fill:#CE3932;" d="M1169.565,1799.366c0.408,11.198,0.953,22.338,1.613,33.419c0,0-8.437,3.15-20.918,6.338
		c0.279-199.908,0.053-522.531,81.423-658.765C1231.683,1180.358,1157.862,1485.782,1169.565,1799.366z"/>
	<path style="fill:#CE3932;" d="M1231.682,1185.22c-8.412-1.839-10.27-27.573-19.988-65.559c-0.54-2.631,1.153-5.2,3.782-5.741
		c2.626-0.54,5.199,1.151,5.74,3.78C1226.911,1155.237,1243.732,1184.642,1231.682,1185.22z"/>
	<path style="fill:#F99370;" d="M1340.224,428.873c-0.752,34.851-43.265,34.138-42.849-0.717
		C1298.126,393.306,1340.639,394.019,1340.224,428.873z"/>
	<path style="fill:#C16256;" d="M1330.949,437.844c-1.107,0.228-2.172-0.738-2.035-1.866c2.922-19.028-6.414-24.975-17.455-17.708
		c-1.852,1.22-3.74-1.741-1.836-2.902c12.931-8.464,26.185-1.808,22.706,20.971C1332.248,437.107,1331.671,437.704,1330.949,437.844
		z"/>
	<path style="fill:#C16256;" d="M1314.755,438.541c-5.318,0.598,1.528-17.492,14.147-20.839c0.893-0.234,1.857,0.306,2.099,1.223
		c0.242,0.917-0.305,1.857-1.222,2.098C1316.96,424.914,1317.765,437.505,1314.755,438.541z"/>
	<path style="fill:#F4D4BE;" d="M1324.789,447.875c1.024,4.896-6.688,6.392-7.569,1.468
		C1316.197,444.447,1323.909,442.951,1324.789,447.875z"/>
	<path style="fill:#0F2E54;" d="M1153.326,1908.458c0.109,4.452-0.02,7.697-0.661,11.723H969.836
		c-8.941,0.008-15.079-9.394-11.095-17.4h194.294C1153.21,1904.842,1153.287,1906.728,1153.326,1908.458z"/>
	<path style="fill:#0F2E54;" d="M1437.756,1920.181h-74.174c-9.187,0-16.091-8.383-14.329-17.4l102.717,0.008
		C1453.698,1911.831,1446.96,1920.187,1437.756,1920.181z"/>
	<path style="fill:#EB5648;" d="M1213.211,559.879c0,0-18.072-3.556-31.242,15.25c0,0,6.459,24.445,36.076,35.679
		c0,0,3.191-11.575,16.234-20.085c0,0,8.277,7.489,9.639,20.085c0,0,52.253-6.51,69.02-42.915c0,0-12.208-10.394-29.38-8.761
		c0,0-22.616,27.505-46.789,24.442C1213.395,580.611,1213.211,559.879,1213.211,559.879z"/>
	<path style="fill:#163356;" d="M1381.801,957.2c-0.432,0-0.869-0.093-1.285-0.291c-1.496-0.71-2.134-2.5-1.423-3.997
		c37.953-79.94,6.955-122.668-20.394-160.366c-4.755-6.553-9.245-12.743-13.336-19.044c-27.965-43.079-35.097-85.286-35.387-87.062
		c-0.267-1.635,0.842-3.176,2.477-3.443c1.635-0.264,3.177,0.841,3.445,2.476c0.069,0.423,7.25,42.789,34.498,84.763
		c4.006,6.171,8.452,12.299,13.159,18.788c13.568,18.702,28.946,39.9,35.656,66.377c7.686,30.326,2.878,63.064-14.699,100.085
		C1383.999,956.567,1382.923,957.2,1381.801,957.2z"/>
	<path style="fill:#C16256;" d="M1161.235,409.671c-0.085,0-0.141-0.001-0.165-0.002c-0.828-0.021-1.482-0.71-1.461-1.538
		c0.021-0.828,0.675-1.501,1.535-1.461c0.122,0.009,9.46,0.096,17.031-7.476c0.586-0.586,1.535-0.586,2.121,0
		c0.586,0.585,0.586,1.536,0,2.121C1172.252,409.361,1162.658,409.671,1161.235,409.671z"/>
	<path style="fill:#C16256;" d="M1216.003,409.671c-0.581,0-1.134-0.339-1.378-0.906c-4.388-10.161-15.271-10.328-15.733-10.33
		c-0.827-0.004-1.496-0.676-1.494-1.503c0.002-0.827,0.671-1.497,1.498-1.497l0,0c0.541,0,13.302,0.14,18.483,12.14
		c0.328,0.761-0.021,1.643-0.782,1.972C1216.403,409.631,1216.201,409.671,1216.003,409.671z"/>
	<path style="fill:#F99370;" d="M810.812,708.132c-7.238-16.437-20.703-29.991-35.717-39.75c-5.765-3.692-0.837-13,5.417-10.395
		c4.905,1.83,9.915,3.825,14.537,6.281c14.65,7.622,28.253,18.127,38.071,31.602C841.064,710.482,818.9,722.691,810.812,708.132z"/>
</g>
<g id="_x31_">
	<path style="fill:#B1CCF2;" d="M1482.403,1766.73c-257.362,69.447-277.161,212.713-645.447,83.83
		c-127.188-44.51-379.915-58.815-379.915,53.445v223.832c0,0,67.404-173.532,134.809-151.064
		c67.404,22.468,142.546,99.659,245.106,114.808c0,0,244.439,89.888,394.727,7.106c136.605-75.245,210.207-84.808,274.379-92.979
		c64.171-8.17,168.342-70.216,213.278-131.752v-259.767C1716.012,1640.884,1686.913,1711.544,1482.403,1766.73z"/>
	<path style="fill:#D7E6FF;" d="M1629.619,2039.404c-166.764,84.255-209.357-2.514-328.967-51.534
		c-188.052-67.197-301.723,199.652-513.19,7.4c-127.82-139.032-251.63,76.304-330.42-91.27v223.84
		c-0.001,149.011,146.274,37.791,264.576,135.572c149.704,123.737,334.318-3.756,423.472-55.497
		c216.445-125.617,223.199,180.766,634.653-34.805L1629.619,2039.404z"/>
	<path style="fill:#B1CCF2;" d="M489.109,2174.138c-1.933,0-3.5-1.567-3.5-3.5v-187.915c0-1.933,1.567-3.5,3.5-3.5
		s3.5,1.567,3.5,3.5v187.915C492.609,2172.57,491.042,2174.138,489.109,2174.138z"/>
	<path style="fill:#B1CCF2;" d="M557.279,2194.563c-1.933,0-3.5-1.567-3.5-3.5v-194.043c0-1.933,1.567-3.5,3.5-3.5
		c1.933,0,3.5,1.567,3.5,3.5v194.043C560.779,2192.996,559.212,2194.563,557.279,2194.563z"/>
	<path style="fill:#B1CCF2;" d="M642.3,2204.776c-1.933,0-3.5-1.567-3.5-3.5v-218.554c0-1.933,1.567-3.5,3.5-3.5s3.5,1.567,3.5,3.5
		v218.554C645.8,2203.209,644.233,2204.776,642.3,2204.776z"/>
	<path style="fill:#B1CCF2;" d="M732.683,2247.67c-1.933,0-3.5-1.567-3.5-3.5v-261.447c0-1.933,1.567-3.5,3.5-3.5s3.5,1.567,3.5,3.5
		v261.447C736.183,2246.103,734.616,2247.67,732.683,2247.67z"/>
	<path style="fill:#B1CCF2;" d="M811.577,2286.479c-1.933,0-3.5-1.567-3.5-3.5v-226.724c0-1.933,1.567-3.5,3.5-3.5
		s3.5,1.567,3.5,3.5v226.724C815.077,2284.911,813.51,2286.479,811.577,2286.479z"/>
	<path style="fill:#B1CCF2;" d="M909.619,2286.479c-1.933,0-3.5-1.567-3.5-3.5v-188.937c0-1.933,1.567-3.5,3.5-3.5
		s3.5,1.567,3.5,3.5v188.937C913.119,2284.911,911.552,2286.479,909.619,2286.479z"/>
	<path style="fill:#B1CCF2;" d="M1009.7,2257.884c-1.682,0-3.165-1.216-3.449-2.929l-26.553-160.341
		c-0.315-1.907,0.974-3.709,2.881-4.025c1.902-0.319,3.71,0.975,4.025,2.881l26.553,160.341c0.315,1.907-0.975,3.709-2.881,4.025
		C1010.082,2257.868,1009.89,2257.884,1009.7,2257.884z"/>
	<path style="fill:#B1CCF2;" d="M1098.433,2204.777c-1.281,0-2.516-0.706-3.13-1.929c-23.436-46.621-51.836-124.189-52.12-124.968
		c-0.663-1.815,0.271-3.825,2.088-4.488c1.811-0.661,3.824,0.271,4.488,2.088c0.282,0.774,28.546,77.967,51.798,124.224
		c0.868,1.728,0.172,3.831-1.555,4.699C1099.497,2204.657,1098.961,2204.777,1098.433,2204.777z"/>
	<path style="fill:#B1CCF2;" d="M1171.18,2173.117c-1.408,0-2.736-0.856-3.27-2.25l-52.786-137.872
		c-0.691-1.805,0.212-3.828,2.018-4.52c1.802-0.69,3.828,0.212,4.52,2.018l52.786,137.872c0.691,1.805-0.212,3.828-2.018,4.52
		C1172.019,2173.042,1171.596,2173.117,1171.18,2173.117z"/>
	<path style="fill:#B1CCF2;" d="M1223.758,2157.797c-1.725,0-3.227-1.275-3.464-3.032l-21.19-157.276
		c-0.258-1.916,1.086-3.679,3.001-3.937c1.917-0.26,3.678,1.085,3.937,3.001l21.19,157.276c0.258,1.916-1.086,3.679-3.001,3.937
		C1224.071,2157.787,1223.914,2157.797,1223.758,2157.797z"/>
	<path style="fill:#B1CCF2;" d="M1300.649,2157.797c-1.791,0-3.317-1.367-3.481-3.186l-12.902-142.979
		c-0.174-1.925,1.246-3.627,3.171-3.801c1.913-0.158,3.626,1.246,3.8,3.172l12.902,142.979c0.174,1.925-1.246,3.627-3.171,3.801
		C1300.861,2157.792,1300.755,2157.797,1300.649,2157.797z"/>
	<path style="fill:#B1CCF2;" d="M1370.98,2192.01c-1.902,0-3.463-1.524-3.498-3.435l-2.693-143.241
		c-0.037-1.933,1.501-3.528,3.434-3.564c0.022-0.001,0.044-0.001,0.066-0.001c1.902,0,3.463,1.524,3.498,3.435l2.693,143.241
		c0.037,1.933-1.501,3.528-3.434,3.564C1371.024,2192.01,1371.003,2192.01,1370.98,2192.01z"/>
	<path style="fill:#B1CCF2;" d="M1467.232,2229.286c-1.767,0-3.285-1.333-3.477-3.129l-14.046-131.744
		c-0.205-1.922,1.188-3.646,3.109-3.852c1.92-0.215,3.646,1.188,3.852,3.109l14.046,131.744c0.205,1.922-1.188,3.646-3.109,3.852
		C1467.481,2229.28,1467.356,2229.286,1467.232,2229.286z"/>
	<path style="fill:#B1CCF2;" d="M1579.58,2229.287c-1.262,0-2.48-0.685-3.105-1.88l-65.362-125.105
		c-0.895-1.714-0.231-3.828,1.481-4.724c1.715-0.892,3.828-0.231,4.724,1.481l65.362,125.105c0.895,1.714,0.231,3.828-1.481,4.724
		C1580.681,2229.158,1580.126,2229.287,1579.58,2229.287z"/>
	<path style="fill:#B1CCF2;" d="M1685.792,2194.563c-1.005,0-2.003-0.431-2.695-1.265l-89.873-108.256
		c-1.234-1.487-1.029-3.693,0.458-4.929c1.486-1.233,3.693-1.029,4.929,0.458l89.873,108.256c1.234,1.487,1.029,3.693-0.458,4.929
		C1687.372,2194.299,1686.58,2194.563,1685.792,2194.563z"/>
</g>
</svg>
